REM MD5 9eeb5c508abb23c0e3538108b7755890
FILE "Wizardry - Dimguil (Japan) (Rev 1).bin" BINARY
  TRACK 01 MODE2/2352
    INDEX 01 00:00:00
  TRACK 02 AUDIO
    INDEX 00 36:18:71
    INDEX 01 36:20:71
  TRACK 03 AUDIO
    INDEX 00 40:04:56
    INDEX 01 40:06:56
REM LEADOUT 44:29:12
